0
SECTION
2
HEADER
9
$INSUNITS
70
4
9
$ACADVER
1
AC1014
9
$HANDSEED
5
FFFF
0
ENDSEC
0
SECTION
2
TABLES
0
TABLE
2
VPORT
5
8
100
AcDbSymbolTable
0
ENDTAB
0
TABLE
2
LTYPE
5
5
100
AcDbSymbolTable
0
LTYPE
5
14
100
AcDbSymbolTableRecord
100
AcDbLinetypeTableRecord
2
BYBLOCK
70
0
0
LTYPE
5
15
100
AcDbSymbolTableRecord
100
AcDbLinetypeTableRecord
2
BYLAYER
70
0
0
ENDTAB
0
TABLE
2
LAYER
5
2
100
AcDbSymbolTable
70
2
0
LAYER
5
50
100
AcDbSymbolTableRecord
100
AcDbLayerTableRecord
2
0
70
0
6
CONTINUOUS
0
ENDTAB
0
TABLE
2
STYLE
5
3
100
AcDbSymbolTable
70
1
0
STYLE
5
11
100
AcDbSymbolTableRecord
100
AcDbTextStyleTableRecord
2
STANDARD
70
0
0
ENDTAB
0
TABLE
2
VIEW
5
6
100
AcDbSymbolTable
70
0
0
ENDTAB
0
TABLE
2
UCS
5
7
100
AcDbSymbolTable
70
0
0
ENDTAB
0
TABLE
2
APPID
5
9
100
AcDbSymbolTable
70
2
0
APPID
5
12
100
AcDbSymbolTableRecord
100
AcDbRegAppTableRecord
2
ACAD
70
0
0
ENDTAB
0
TABLE
2
DIMSTYLE
5
A
100
AcDbSymbolTable
70
1
0
ENDTAB
0
TABLE
2
BLOCK_RECORD
5
1
100
AcDbSymbolTable
70
1
0
BLOCK_RECORD
5
1F
100
AcDbSymbolTableRecord
100
AcDbBlockTableRecord
2
*MODEL_SPACE
0
BLOCK_RECORD
5
1B
100
AcDbSymbolTableRecord
100
AcDbBlockTableRecord
2
*PAPER_SPACE
0
ENDTAB
0
ENDSEC
0
SECTION
2
BLOCKS
0
BLOCK
5
20
100
AcDbEntity
100
AcDbBlockBegin
2
*MODEL_SPACE
0
ENDBLK
5
21
100
AcDbEntity
100
AcDbBlockEnd
0
BLOCK
5
1C
100
AcDbEntity
100
AcDbBlockBegin
2
*PAPER_SPACE
0
ENDBLK
5
1D
100
AcDbEntity
100
AcDbBlockEnd
0
ENDSEC
0
SECTION
2
ENTITIES
0
LWPOLYLINE
5
100
100
AcDbEntity
8
0
100
AcDbPolyline
90
72
70
1
43
0.0
10
-0.10000000000003589
20
-63.785031847134157
10
-0.10000000000007073
20
-53.985031847134152
10
-6.1000000000000849
20
-53.985031847134152
10
-6.1000000000000849
20
-43.785031847134157
10
-0.10000000000007088
20
-43.785031847134157
10
-0.10000000000000009
20
-11.464968152866239
42
-0.41421356237309492
10
11.464968152866239
20
0.10000000000000002
10
68.800000000000082
20
0.10000000000021284
10
68.80000000000021
20
6.0999999999999455
10
79.000000000000128
20
6.0999999999998709
10
79.000000000000028
20
0.099999999999930145
10
88.800000000000026
20
0.099999999999998979
10
88.800000000000068
20
6.1000000000000139
10
119.00000000000006
20
6.1000000000000849
10
119
20
0.099999999999929146
10
166.33503184713376
20
0.099999999999988987
42
-0.41421356237309237
10
177.89999999999995
20
-11.464968152866238
10
177.89999999999995
20
-43.785031847134086
10
183.90000000000001
20
-43.785031847134086
10
183.90000000000001
20
-53.985031847134067
10
177.89999999999995
20
-53.985031847134067
10
177.89999999999995
20
-63.785031847134086
10
183.90000000000001
20
-63.785031847134086
10
183.90000000000001
20
-93.985031847134138
10
177.90000000000003
20
-93.985031847134138
10
177.90000000000003
20
-166.27499999999995
10
183.90000000000003
20
-166.27499999999995
10
183.90000000000003
20
-196.47500000000002
10
177.90000000000003
20
-196.47500000000002
10
177.90000000000003
20
-206.27500000000001
10
183.90000000000003
20
-206.27500000000001
10
183.90000000000003
20
-216.47500000000002
10
177.90000000000003
20
-216.47500000000002
10
177.90000000000003
20
-298.76496815286589
10
183.90000000000003
20
-298.76496815286589
10
183.90000000000003
20
-328.96496815286588
10
177.90000000000003
20
-328.96496815286588
10
177.90000000000003
20
-338.76496815286595
10
183.90000000000003
20
-338.76496815286595
10
183.90000000000003
20
-348.96496815286588
10
177.90000000000003
20
-348.96496815286588
10
177.89999999999995
20
-381.28503184713372
42
-0.41421356237309948
10
166.33503184713376
20
-392.85000000000002
10
119
20
-392.85000000000002
10
119
20
-398.85000000000019
10
88.799999999999969
20
-398.85000000000002
10
88.800000000000026
20
-392.85000000000002
10
79.000000000000028
20
-392.85000000000019
10
78.999999999999929
20
-398.85000000000019
10
68.799999999999983
20
-398.84999999999991
10
68.800000000000111
20
-392.85000000000019
10
11.464968152866248
20
-392.85000000000002
42
-0.41421356237310053
10
-0.099999999999984546
20
-381.28503184713372
10
-0.10000000000000009
20
-348.96496815286588
10
-6.1000000000000139
20
-348.96496815286588
10
-6.1000000000000139
20
-338.76496815286595
10
-0.10000000000000002
20
-338.76496815286595
10
-0.10000000000000002
20
-328.96496815286588
10
-6.1000000000000139
20
-328.96496815286588
10
-6.1000000000000139
20
-298.76496815286589
10
-0.10000000000000009
20
-298.76496815286589
10
-0.099999999999984476
20
-216.47500000000008
10
-6.0999999999999988
20
-216.47500000000008
10
-6.0999999999999988
20
-206.27500000000001
10
-0.099999999999984546
20
-206.27500000000001
10
-0.099999999999984546
20
-196.47500000000008
10
-6.0999999999999988
20
-196.47500000000008
10
-6.0999999999999988
20
-166.27500000000001
10
-0.099999999999984476
20
-166.27500000000001
10
-0.099999999999996758
20
-93.985031847134195
10
-6.1000000000000494
20
-93.985031847134195
10
-6.1000000000000494
20
-63.785031847134157
0
LWPOLYLINE
5
101
100
AcDbEntity
8
0
100
AcDbPolyline
90
4
70
1
43
0.0
10
63.699999999999967
20
-385.90000000000003
10
55.899999999999991
20
-385.90000000000003
10
55.899999999999991
20
-298.10000000000002
10
63.700000000000038
20
-298.10000000000002
0
CIRCLE
5
102
100
AcDbEntity
8
0
100
AcDbCircle
10
-139.24300161946749
20
-177.77346374937409
30
1.7763568394002501e-14
40
1.6145000000000009
210
-0
220
-4.2422121478583519e-47
230
-1
0
LWPOLYLINE
5
103
100
AcDbEntity
8
0
100
AcDbPolyline
90
4
70
1
43
0.0
10
71.899999999999977
20
-298.10000000000002
10
79.699999999999974
20
-298.10000000000002
10
79.699999999999974
20
-385.90000000000003
10
71.899999999999977
20
-385.90000000000003
0
LWPOLYLINE
5
104
100
AcDbEntity
8
0
100
AcDbPolyline
90
4
70
1
43
0.0
10
119.89999999999996
20
-298.10000000000002
10
127.70000000000003
20
-298.10000000000002
10
127.70000000000003
20
-385.90000000000003
10
119.89999999999996
20
-385.90000000000003
0
LINE
5
105
100
AcDbEntity
8
0
100
AcDbLine
10
177.80000000000001
20
-102.88503184713377
30
0
11
134.84999999999999
21
-102.88503184713377
31
0
0
LWPOLYLINE
5
106
100
AcDbEntity
8
0
100
AcDbPolyline
90
4
70
1
43
0.0
10
94.109156992746236
20
-174.3944703182126
10
94.109156992746179
20
-133.39447031821265
10
103.46372012186642
20
-133.39447031821265
10
103.46372012186642
20
-174.3944703182126
0
LWPOLYLINE
5
107
100
AcDbEntity
8
0
100
AcDbPolyline
90
4
70
1
43
0.0
10
103.89999999999998
20
-385.90000000000003
10
103.90000000000002
20
-298.10000000000002
10
111.70000000000002
20
-298.10000000000002
10
111.70000000000002
20
-385.90000000000003
0
LWPOLYLINE
5
108
100
AcDbEntity
8
0
100
AcDbPolyline
90
4
70
1
43
0.0
10
115.46372012186659
20
-174.39447031821263
10
106.10915699274628
20
-174.3944703182126
10
106.10915699274621
20
-133.39447031821265
10
115.46372012186652
20
-133.39447031821271
0
LWPOLYLINE
5
109
100
AcDbEntity
8
0
100
AcDbPolyline
90
4
70
1
43
0.0
10
89.446673082234938
20
-133.73183105292506
10
89.446673082235066
20
-160.05401185026784
10
39.620653144878794
20
-160.0540118502677
10
39.620653144878652
20
-133.73183105292492
0
LWPOLYLINE
5
110
100
AcDbEntity
8
0
100
AcDbPolyline
90
4
70
1
43
0.0
10
127.46372012186653
20
-133.39447031821271
10
127.4637201218666
20
-174.39447031821263
10
118.10915699274632
20
-174.39447031821263
10
118.10915699274622
20
-133.39447031821271
0
CIRCLE
5
111
100
AcDbEntity
8
0
100
AcDbCircle
10
25.743001619467311
20
-126.77346374937395
30
1.1102230246251563e-15
40
1.6145000000000009
210
0
220
0
230
1
0
LINE
5
112
100
AcDbEntity
8
0
100
AcDbLine
10
127.80000000000001
20
-310
30
0
11
127.80000000000001
21
-350
31
0
0
LWPOLYLINE
5
113
100
AcDbEntity
8
0
100
AcDbPolyline
90
4
70
1
43
0.0
10
87.900000000000006
20
-298.10000000000002
10
95.700000000000003
20
-298.10000000000002
10
95.700000000000003
20
-385.90000000000003
10
87.900000000000006
20
-385.90000000000003
0
CIRCLE
5
114
100
AcDbEntity
8
0
100
AcDbCircle
10
25.743001619467449
20
-177.77346374937392
30
1.1102230246251563e-15
40
1.6145000000000009
210
0
220
0
230
1
0
LWPOLYLINE
5
115
100
AcDbEntity
8
0
100
AcDbPolyline
90
4
70
1
43
0.0
10
16.912697728434622
20
-238.29566384487973
10
16.912697728434622
20
-251.61139987024868
10
4.0700000000000358
20
-251.61139987024856
10
4.0700000000000358
20
-238.29566384487958
0
CIRCLE
5
116
100
AcDbEntity
8
0
100
AcDbCircle
10
139.24300161946749
20
-126.77346374937414
30
1.1102230246251563e-15
40
1.6145000000000009
210
0
220
0
230
1
0
LINE
5
117
100
AcDbEntity
8
0
100
AcDbLine
10
-0.49999999999998934
20
-271.8649681528662
30
0
11
42.94999999999996
21
-271.8649681528662
31
0
0
LINE
5
118
100
AcDbEntity
8
0
100
AcDbLine
10
6.0000000000000178
20
-114.28503184713378
30
0
11
85.900000000000034
21
-114.28503184713378
31
0
0
LINE
5
119
100
AcDbEntity
8
0
100
AcDbLine
10
-0.49999999999998934
20
-288.36496815286625
30
0
11
42.94999999999996
21
-288.36496815286625
31
0
0
LINE
5
120
100
AcDbEntity
8
0
100
AcDbLine
10
6.0000000000000178
20
-104.38503184713377
30
0
11
85.900000000000034
21
-104.38503184713377
31
0
0
LINE
5
121
100
AcDbEntity
8
0
100
AcDbLine
10
5.9999999999999964
20
-286.56496815286624
30
0
11
85.90000000000002
21
-286.56496815286619
31
0
0
LINE
5
122
100
AcDbEntity
8
0
100
AcDbLine
10
91.900000000000034
20
-107.6850318471337
30
0
11
171.80000000000004
21
-107.68503184713379
31
0
0
LWPOLYLINE
5
123
100
AcDbEntity
8
0
100
AcDbPolyline
90
4
70
1
43
0.0
10
139.46372012186643
20
-133.39447031821271
10
139.46372012186652
20
-174.39447031821263
10
130.10915699274619
20
-174.39447031821263
10
130.10915699274608
20
-133.39447031821271
0
LINE
5
124
100
AcDbEntity
8
0
100
AcDbLine
10
134.84999999999999
20
-106.18503184713377
30
0
11
178.3000000000001
21
-106.18503184713377
31
0
0
LINE
5
125
100
AcDbEntity
8
0
100
AcDbLine
10
48.950000000000031
20
-112.78503184713372
30
0
11
128.84999999999997
21
-112.78503184713378
31
0
0
LINE
5
126
100
AcDbEntity
8
0
100
AcDbLine
10
48.949999999999974
20
-278.46496815286616
30
0
11
128.84999999999999
21
-278.46496815286628
31
0
0
LINE
5
127
100
AcDbEntity
8
0
100
AcDbLine
10
91.900000000000006
20
-273.36496815286614
30
0
11
171.80000000000004
21
-273.36496815286625
31
0
0
LINE
5
128
100
AcDbEntity
8
0
100
AcDbLine
10
134.84999999999999
20
-102.88503184713377
30
0
11
178.3000000000001
21
-102.88503184713377
31
0
0
LINE
5
129
100
AcDbEntity
8
0
100
AcDbLine
10
-0.50000000000000477
20
-119.38503184713377
30
0
11
42.950000000000017
21
-119.38503184713377
31
0
0
LINE
5
130
100
AcDbEntity
8
0
100
AcDbLine
10
5.9999999999999964
20
-279.96496815286616
30
0
11
85.90000000000002
21
-279.96496815286616
31
0
0
LINE
5
131
100
AcDbEntity
8
0
100
AcDbLine
10
-0.50000000000000477
20
-116.08503184713378
30
0
11
42.950000000000017
21
-116.08503184713378
31
0
0
LINE
5
132
100
AcDbEntity
8
0
100
AcDbLine
10
48.950000000000031
20
-116.08503184713371
30
0
11
128.84999999999997
21
-116.08503184713379
31
0
0
LINE
5
133
100
AcDbEntity
8
0
100
AcDbLine
10
6.0000000000000178
20
-120.88503184713377
30
0
11
85.900000000000034
21
-120.88503184713377
31
0
0
LINE
5
134
100
AcDbEntity
8
0
100
AcDbLine
10
-0.50000000000000477
20
-102.88503184713377
30
0
11
42.950000000000017
21
-102.88503184713377
31
0
0
LINE
5
135
100
AcDbEntity
8
0
100
AcDbLine
10
-0.49999999999998934
20
-285.06496815286619
30
0
11
42.94999999999996
21
-285.06496815286619
31
0
0
LINE
5
136
100
AcDbEntity
8
0
100
AcDbLine
10
134.84999999999997
20
-281.76496815286617
30
0
11
178.29999999999995
21
-281.76496815286623
31
0
0
LINE
5
137
100
AcDbEntity
8
0
100
AcDbLine
10
5.9999999999999964
20
-289.8649681528662
30
0
11
85.90000000000002
21
-289.8649681528662
31
0
0
LINE
5
138
100
AcDbEntity
8
0
100
AcDbLine
10
134.84999999999997
20
-285.06496815286619
30
0
11
178.29999999999995
21
-285.06496815286624
31
0
0
LINE
5
139
100
AcDbEntity
8
0
100
AcDbLine
10
91.900000000000006
20
-279.96496815286611
30
0
11
171.80000000000004
21
-279.96496815286616
31
0
0
LINE
5
140
100
AcDbEntity
8
0
100
AcDbLine
10
-0.50000000000000477
20
-106.18503184713377
30
0
11
42.950000000000017
21
-106.18503184713377
31
0
0
LINE
5
141
100
AcDbEntity
8
0
100
AcDbLine
10
5.9999999999999964
20
-273.36496815286625
30
0
11
85.90000000000002
21
-273.36496815286625
31
0
0
LINE
5
142
100
AcDbEntity
8
0
100
AcDbLine
10
134.84999999999997
20
-275.16496815286615
30
0
11
178.29999999999995
21
-275.16496815286615
31
0
0
LINE
5
143
100
AcDbEntity
8
0
100
AcDbLine
10
134.84999999999999
20
-116.08503184713378
30
0
11
178.3000000000001
21
-116.08503184713379
31
0
0
LINE
5
144
100
AcDbEntity
8
0
100
AcDbLine
10
-0.49999999999998934
20
-275.16496815286615
30
0
11
42.94999999999996
21
-275.16496815286615
31
0
0
LINE
5
145
100
AcDbEntity
8
0
100
AcDbLine
10
6.0000000000000178
20
-107.68503184713379
30
0
11
85.900000000000034
21
-107.68503184713374
31
0
0
LINE
5
146
100
AcDbEntity
8
0
100
AcDbLine
10
91.900000000000006
20
-286.56496815286619
30
0
11
171.80000000000004
21
-286.56496815286624
31
0
0
LINE
5
147
100
AcDbEntity
8
0
100
AcDbLine
10
-0.50000000000000477
20
-109.48503184713377
30
0
11
42.950000000000017
21
-109.48503184713377
31
0
0
LINE
5
148
100
AcDbEntity
8
0
100
AcDbLine
10
6.0000000000000178
20
-117.58503184713376
30
0
11
85.900000000000034
21
-117.58503184713376
31
0
0
LINE
5
149
100
AcDbEntity
8
0
100
AcDbLine
10
48.949999999999974
20
-285.06496815286619
30
0
11
128.84999999999999
21
-285.06496815286619
31
0
0
LINE
5
150
100
AcDbEntity
8
0
100
AcDbLine
10
91.900000000000034
20
-110.98503184713371
30
0
11
171.80000000000004
21
-110.98503184713378
31
0
0
LINE
5
151
100
AcDbEntity
8
0
100
AcDbLine
10
48.950000000000031
20
-109.48503184713373
30
0
11
128.84999999999997
21
-109.48503184713377
31
0
0
LINE
5
152
100
AcDbEntity
8
0
100
AcDbLine
10
48.949999999999974
20
-275.16496815286615
30
0
11
128.84999999999999
21
-275.16496815286615
31
0
0
LINE
5
153
100
AcDbEntity
8
0
100
AcDbLine
10
48.949999999999974
20
-288.36496815286614
30
0
11
128.84999999999999
21
-288.36496815286625
31
0
0
LINE
5
154
100
AcDbEntity
8
0
100
AcDbLine
10
91.900000000000034
20
-117.58503184713369
30
0
11
171.80000000000004
21
-117.58503184713376
31
0
0
LINE
5
155
100
AcDbEntity
8
0
100
AcDbLine
10
-0.50000000000000477
20
-112.78503184713378
30
0
11
42.950000000000017
21
-112.78503184713378
31
0
0
LINE
5
156
100
AcDbEntity
8
0
100
AcDbLine
10
134.84999999999999
20
-119.38503184713377
30
0
11
178.3000000000001
21
-119.38503184713377
31
0
0
LINE
5
157
100
AcDbEntity
8
0
100
AcDbLine
10
5.9999999999999964
20
-276.66496815286615
30
0
11
85.90000000000002
21
-276.66496815286615
31
0
0
LINE
5
158
100
AcDbEntity
8
0
100
AcDbLine
10
6.0000000000000178
20
-110.98503184713378
30
0
11
85.900000000000034
21
-110.98503184713373
31
0
0
LINE
5
159
100
AcDbEntity
8
0
100
AcDbLine
10
91.900000000000034
20
-104.38503184713369
30
0
11
171.80000000000004
21
-104.38503184713377
31
0
0
LINE
5
160
100
AcDbEntity
8
0
100
AcDbLine
10
91.900000000000006
20
-283.26496815286606
30
0
11
171.80000000000004
21
-283.26496815286623
31
0
0
LINE
5
161
100
AcDbEntity
8
0
100
AcDbLine
10
48.949999999999974
20
-271.86496815286614
30
0
11
128.84999999999999
21
-271.8649681528662
31
0
0
LINE
5
162
100
AcDbEntity
8
0
100
AcDbLine
10
134.84999999999999
20
-109.48503184713377
30
0
11
178.3000000000001
21
-109.48503184713377
31
0
0
LINE
5
163
100
AcDbEntity
8
0
100
AcDbLine
10
5.9999999999999964
20
-283.26496815286623
30
0
11
85.90000000000002
21
-283.26496815286617
31
0
0
LINE
5
164
100
AcDbEntity
8
0
100
AcDbLine
10
134.84999999999997
20
-278.46496815286628
30
0
11
178.29999999999995
21
-278.46496815286628
31
0
0
LINE
5
165
100
AcDbEntity
8
0
100
AcDbLine
10
-0.49999999999998934
20
-278.46496815286628
30
0
11
42.94999999999996
21
-278.46496815286628
31
0
0
LINE
5
166
100
AcDbEntity
8
0
100
AcDbLine
10
48.950000000000031
20
-119.38503184713372
30
0
11
128.84999999999997
21
-119.38503184713377
31
0
0
LINE
5
167
100
AcDbEntity
8
0
100
AcDbLine
10
-0.49999999999998934
20
-281.76496815286617
30
0
11
42.94999999999996
21
-281.76496815286617
31
0
0
LINE
5
168
100
AcDbEntity
8
0
100
AcDbLine
10
91.900000000000006
20
-289.86496815286614
30
0
11
171.80000000000004
21
-289.8649681528662
31
0
0
LINE
5
169
100
AcDbEntity
8
0
100
AcDbLine
10
134.84999999999997
20
-288.36496815286625
30
0
11
178.29999999999995
21
-288.36496815286625
31
0
0
LINE
5
170
100
AcDbEntity
8
0
100
AcDbLine
10
48.950000000000031
20
-106.18503184713373
30
0
11
128.84999999999997
21
-106.18503184713377
31
0
0
LINE
5
171
100
AcDbEntity
8
0
100
AcDbLine
10
134.84999999999999
20
-112.78503184713378
30
0
11
178.3000000000001
21
-112.78503184713379
31
0
0
LINE
5
172
100
AcDbEntity
8
0
100
AcDbLine
10
91.900000000000006
20
-276.66496815286615
30
0
11
171.80000000000004
21
-276.66496815286615
31
0
0
LINE
5
173
100
AcDbEntity
8
0
100
AcDbLine
10
91.900000000000034
20
-114.28503184713371
30
0
11
171.80000000000004
21
-114.28503184713378
31
0
0
LINE
5
174
100
AcDbEntity
8
0
100
AcDbLine
10
91.900000000000034
20
-120.88503184713369
30
0
11
171.80000000000004
21
-120.88503184713377
31
0
0
LINE
5
175
100
AcDbEntity
8
0
100
AcDbLine
10
48.950000000000031
20
-102.88503184713372
30
0
11
128.84999999999997
21
-102.88503184713377
31
0
0
LINE
5
176
100
AcDbEntity
8
0
100
AcDbLine
10
48.949999999999974
20
-281.76496815286617
30
0
11
128.84999999999999
21
-281.76496815286617
31
0
0
LINE
5
177
100
AcDbEntity
8
0
100
AcDbLine
10
134.84999999999997
20
-271.8649681528662
30
0
11
178.29999999999995
21
-271.86496815286625
31
0
0
ENDSEC
0
SECTION
2
OBJECTS
0
DICTIONARY
5
C
100
AcDbDictionary
3
ACAD_GROUP
350
D
3
ACAD_MLINESTYLE
350
17
0
DICTIONARY
5
D
100
AcDbDictionary
0
DICTIONARY
5
1A
330
C
100
AcDbDictionary
0
DICTIONARY
5
17
100
AcDbDictionary
0
ENDSEC
0
EOF
