0
SECTION
2
HEADER
9
$INSUNITS
70
4
9
$ACADVER
1
AC1014
9
$HANDSEED
5
FFFF
0
ENDSEC
0
SECTION
2
TABLES
0
TABLE
2
VPORT
5
8
100
AcDbSymbolTable
0
ENDTAB
0
TABLE
2
LTYPE
5
5
100
AcDbSymbolTable
0
LTYPE
5
14
100
AcDbSymbolTableRecord
100
AcDbLinetypeTableRecord
2
BYBLOCK
70
0
0
LTYPE
5
15
100
AcDbSymbolTableRecord
100
AcDbLinetypeTableRecord
2
BYLAYER
70
0
0
ENDTAB
0
TABLE
2
LAYER
5
2
100
AcDbSymbolTable
70
2
0
LAYER
5
50
100
AcDbSymbolTableRecord
100
AcDbLayerTableRecord
2
0
70
0
6
CONTINUOUS
0
ENDTAB
0
TABLE
2
STYLE
5
3
100
AcDbSymbolTable
70
1
0
STYLE
5
11
100
AcDbSymbolTableRecord
100
AcDbTextStyleTableRecord
2
STANDARD
70
0
0
ENDTAB
0
TABLE
2
VIEW
5
6
100
AcDbSymbolTable
70
0
0
ENDTAB
0
TABLE
2
UCS
5
7
100
AcDbSymbolTable
70
0
0
ENDTAB
0
TABLE
2
APPID
5
9
100
AcDbSymbolTable
70
2
0
APPID
5
12
100
AcDbSymbolTableRecord
100
AcDbRegAppTableRecord
2
ACAD
70
0
0
ENDTAB
0
TABLE
2
DIMSTYLE
5
A
100
AcDbSymbolTable
70
1
0
ENDTAB
0
TABLE
2
BLOCK_RECORD
5
1
100
AcDbSymbolTable
70
1
0
BLOCK_RECORD
5
1F
100
AcDbSymbolTableRecord
100
AcDbBlockTableRecord
2
*MODEL_SPACE
0
BLOCK_RECORD
5
1B
100
AcDbSymbolTableRecord
100
AcDbBlockTableRecord
2
*PAPER_SPACE
0
ENDTAB
0
ENDSEC
0
SECTION
2
BLOCKS
0
BLOCK
5
20
100
AcDbEntity
100
AcDbBlockBegin
2
*MODEL_SPACE
0
ENDBLK
5
21
100
AcDbEntity
100
AcDbBlockEnd
0
BLOCK
5
1C
100
AcDbEntity
100
AcDbBlockBegin
2
*PAPER_SPACE
0
ENDBLK
5
1D
100
AcDbEntity
100
AcDbBlockEnd
0
ENDSEC
0
SECTION
2
ENTITIES
0
LINE
5
100
100
AcDbEntity
8
0
100
AcDbLine
10
378.47250000000003
20
-123.79000000000002
30
0
11
467.4174999999999
21
-123.79000000000002
31
0
0
LWPOLYLINE
5
101
100
AcDbEntity
8
0
100
AcDbPolyline
90
8
70
1
43
0.0
10
418.40376252073378
20
-48.029999999999937
10
423.10376252073377
20
-48.029999999999909
42
-0.41421356237309509
10
424.10376252073377
20
-49.029999999999923
10
424.10376252073377
20
-74.969999999999871
42
-0.41421356237309509
10
423.10376252073377
20
-75.969999999999857
10
418.40376252073378
20
-75.969999999999885
42
-0.41421356237309509
10
417.40376252073372
20
-74.969999999999871
10
417.40376252073372
20
-49.029999999999923
42
-0.41421356237309509
0
LINE
5
102
100
AcDbEntity
8
0
100
AcDbLine
10
378.47250000000003
20
-296.66999999999979
30
0
11
467.4174999999999
21
-296.67000000000002
31
0
0
LINE
5
103
100
AcDbEntity
8
0
100
AcDbLine
10
425.94499999999994
20
-121.98999999999991
30
0
11
514.8900000000001
21
-121.98999999999999
31
0
0
LINE
5
104
100
AcDbEntity
8
0
100
AcDbLine
10
473.4174999999999
20
-130.39000000000004
30
0
11
521.38999999999987
21
-130.39000000000004
31
0
0
LINE
5
105
100
AcDbEntity
8
0
100
AcDbLine
10
425.94499999999994
20
-115.38999999999987
30
0
11
514.8900000000001
21
-115.39000000000001
31
0
0
CIRCLE
5
106
100
AcDbEntity
8
0
100
AcDbCircle
10
-438.20459426627593
20
-23.499999999999975
30
2.3314683517128275e-14
40
1.4999999999999878
210
-2.8141586536404425e-32
220
7.4888526752955418e-48
230
-1
0
LINE
5
107
100
AcDbEntity
8
0
100
AcDbLine
10
378.47250000000003
20
-293.36999999999983
30
0
11
467.4174999999999
21
-293.37
31
0
0
LINE
5
108
100
AcDbEntity
8
0
100
AcDbLine
10
473.4174999999999
20
-299.97000000000008
30
0
11
521.38999999999999
21
-299.97000000000008
31
0
0
LINE
5
109
100
AcDbEntity
8
0
100
AcDbLine
10
331
20
-294.86999999999989
30
0
11
419.94500000000011
21
-294.86999999999989
31
0
0
LWPOLYLINE
5
110
100
AcDbEntity
8
0
100
AcDbPolyline
90
4
70
1
43
0.0
10
433.52000000000021
20
-83.999999999999844
10
433.52000000000027
20
-39.999999999999964
10
477.52000000000015
20
-39.999999999999964
10
477.52000000000015
20
-83.999999999999886
0
LINE
5
111
100
AcDbEntity
8
0
100
AcDbLine
10
425.94499999999994
20
-128.58999999999986
30
0
11
514.8900000000001
21
-128.58999999999997
31
0
0
LWPOLYLINE
5
112
100
AcDbEntity
8
0
100
AcDbPolyline
90
4
70
1
43
0.0
10
394.27000000000021
20
-111.04999999999984
10
353.87000000000052
20
-111.04999999999984
10
353.87000000000052
20
-12.950000000000017
10
394.27000000000021
20
-12.950000000000017
0
LINE
5
113
100
AcDbEntity
8
0
100
AcDbLine
10
378.47250000000003
20
-286.76999999999987
30
0
11
467.4174999999999
21
-286.76999999999998
31
0
0
LWPOLYLINE
5
114
100
AcDbEntity
8
0
100
AcDbPolyline
90
8
70
1
43
0.0
10
509.42503184713371
20
-418.66000000000008
10
336.46496815286633
20
-418.66000000000014
42
-0.41421356237308593
10
325
20
-407.19503184713375
10
325
20
-11.464968152866248
42
-0.41421356237309304
10
336.46496815286633
20
2.1382117680737561e-49
10
509.42503184713371
20
1.5099033134902129e-13
42
-0.41421356237309659
10
520.8900000000001
20
-11.464968152866245
10
520.88999999999987
20
-407.19503184713375
42
-0.41421356237310231
0
LINE
5
115
100
AcDbEntity
8
0
100
AcDbLine
10
331
20
-288.26999999999992
30
0
11
419.94500000000011
21
-288.26999999999992
31
0
0
CIRCLE
5
116
100
AcDbEntity
8
0
100
AcDbCircle
10
-473.20459426627576
20
-23.500000000000011
30
2.4424906541753431e-14
40
1.4999999999999878
210
-2.8141586536404425e-32
220
7.4888526752955418e-48
230
-1
0
LINE
5
117
100
AcDbEntity
8
0
100
AcDbLine
10
378.47250000000003
20
-303.26999999999987
30
0
11
467.4174999999999
21
-303.26999999999998
31
0
0
LINE
5
118
100
AcDbEntity
8
0
100
AcDbLine
10
324.5
20
-303.26999999999998
30
0
11
372.47249999999997
21
-303.26999999999998
31
0
0
LINE
5
119
100
AcDbEntity
8
0
100
AcDbLine
10
330.99999999999989
20
-118.69
30
0
11
419.94500000000005
21
-118.68999999999994
31
0
0
LINE
5
120
100
AcDbEntity
8
0
100
AcDbLine
10
324.5
20
-293.37
30
0
11
372.47249999999997
21
-293.37
31
0
0
LINE
5
121
100
AcDbEntity
8
0
100
AcDbLine
10
425.94499999999994
20
-294.86999999999989
30
0
11
514.8900000000001
21
-294.86999999999989
31
0
0
LINE
5
122
100
AcDbEntity
8
0
100
AcDbLine
10
324.99999999999994
20
-113.89000000000001
30
0
11
324.99999999999994
21
-131.88999999999999
31
0
0
LINE
5
123
100
AcDbEntity
8
0
100
AcDbLine
10
425.94499999999994
20
-298.17000000000002
30
0
11
514.8900000000001
21
-298.17000000000002
31
0
0
LINE
5
124
100
AcDbEntity
8
0
100
AcDbLine
10
473.4174999999999
20
-286.76999999999998
30
0
11
521.38999999999999
21
-286.76999999999998
31
0
0
LINE
5
125
100
AcDbEntity
8
0
100
AcDbLine
10
330.99999999999989
20
-121.98999999999999
30
0
11
419.94500000000005
21
-121.98999999999998
31
0
0
LINE
5
126
100
AcDbEntity
8
0
100
AcDbLine
10
324.5
20
-296.67000000000002
30
0
11
372.47249999999997
21
-296.67000000000002
31
0
0
LINE
5
127
100
AcDbEntity
8
0
100
AcDbLine
10
473.4174999999999
20
-293.37
30
0
11
521.38999999999999
21
-293.37
31
0
0
LINE
5
128
100
AcDbEntity
8
0
100
AcDbLine
10
331
20
-298.17000000000002
30
0
11
419.94500000000011
21
-298.17000000000002
31
0
0
LINE
5
129
100
AcDbEntity
8
0
100
AcDbLine
10
324.5
20
-286.76999999999998
30
0
11
372.47249999999997
21
-286.76999999999998
31
0
0
LINE
5
130
100
AcDbEntity
8
0
100
AcDbLine
10
330.99999999999989
20
-128.58999999999997
30
0
11
419.94500000000005
21
-128.58999999999997
31
0
0
LINE
5
131
100
AcDbEntity
8
0
100
AcDbLine
10
424.10376252073377
20
-49.029999999999923
30
-2.1094237467877971e-14
11
424.10376252073377
21
-74.969999999999871
31
0
0
CIRCLE
5
132
100
AcDbEntity
8
0
100
AcDbCircle
10
401.21999999999969
20
-108.49999999999945
30
0
40
1.4999999999999871
210
0
220
0
230
1
0
LINE
5
133
100
AcDbEntity
8
0
100
AcDbLine
10
378.47250000000003
20
-117.18999999999996
30
0
11
467.4174999999999
21
-117.19000000000005
31
0
0
LINE
5
134
100
AcDbEntity
8
0
100
AcDbLine
10
473.4174999999999
20
-123.79000000000002
30
0
11
521.38999999999987
21
-123.79000000000005
31
0
0
LINE
5
135
100
AcDbEntity
8
0
100
AcDbLine
10
324.49999999999994
20
-127.09000000000003
30
0
11
372.47249999999997
21
-127.09000000000003
31
0
0
CIRCLE
5
136
100
AcDbEntity
8
0
100
AcDbCircle
10
-493.24964339833906
20
-25.907317061482548
30
2.5535129566378585e-14
40
3.1749999999999967
210
-2.8141586536404425e-32
220
7.4888526752955418e-48
230
-1
0
LINE
5
137
100
AcDbEntity
8
0
100
AcDbLine
10
330.99999999999989
20
-125.28999999999998
30
0
11
419.94500000000005
21
-125.28999999999998
31
0
0
LINE
5
138
100
AcDbEntity
8
0
100
AcDbLine
10
378.47250000000003
20
-290.06999999999982
30
0
11
467.4174999999999
21
-290.06999999999999
31
0
0
LINE
5
139
100
AcDbEntity
8
0
100
AcDbLine
10
324.49999999999994
20
-113.89000000000001
30
0
11
372.47249999999997
21
-113.89000000000001
31
0
0
LINE
5
140
100
AcDbEntity
8
0
100
AcDbLine
10
324.49999999999994
20
-120.48999999999999
30
0
11
372.47249999999997
21
-120.48999999999999
31
0
0
LINE
5
141
100
AcDbEntity
8
0
100
AcDbLine
10
425.94499999999994
20
-288.26999999999992
30
0
11
514.8900000000001
21
-288.26999999999992
31
0
0
LINE
5
142
100
AcDbEntity
8
0
100
AcDbLine
10
473.4174999999999
20
-296.67000000000002
30
0
11
521.38999999999999
21
-296.67000000000002
31
0
0
LINE
5
143
100
AcDbEntity
8
0
100
AcDbLine
10
425.94499999999994
20
-304.76999999999987
30
0
11
514.8900000000001
21
-304.76999999999987
31
0
0
LINE
5
144
100
AcDbEntity
8
0
100
AcDbLine
10
378.47250000000003
20
-113.88999999999996
30
0
11
467.4174999999999
21
-113.89000000000001
31
0
0
LINE
5
145
100
AcDbEntity
8
0
100
AcDbLine
10
473.4174999999999
20
-290.06999999999999
30
0
11
521.38999999999999
21
-290.06999999999999
31
0
0
LINE
5
146
100
AcDbEntity
8
0
100
AcDbLine
10
331
20
-291.56999999999988
30
0
11
419.94500000000011
21
-291.56999999999988
31
0
0
LINE
5
147
100
AcDbEntity
8
0
100
AcDbLine
10
473.4174999999999
20
-120.48999999999999
30
0
11
521.38999999999987
21
-120.48999999999999
31
0
0
LINE
5
148
100
AcDbEntity
8
0
100
AcDbLine
10
425.94499999999994
20
-291.56999999999988
30
0
11
514.8900000000001
21
-291.56999999999988
31
0
0
LINE
5
149
100
AcDbEntity
8
0
100
AcDbLine
10
473.4174999999999
20
-303.26999999999998
30
0
11
521.38999999999999
21
-303.26999999999998
31
0
0
LINE
5
150
100
AcDbEntity
8
0
100
AcDbLine
10
425.94499999999994
20
-125.28999999999994
30
0
11
514.8900000000001
21
-125.28999999999998
31
0
0
CIRCLE
5
151
100
AcDbEntity
8
0
100
AcDbCircle
10
-346.21999999999986
20
-108.4999999999998
30
9.992007221626401e-15
40
1.4999999999999878
210
-2.8141586536404425e-32
220
7.4888526752955418e-48
230
-1
0
LINE
5
152
100
AcDbEntity
8
0
100
AcDbLine
10
330.99999999999989
20
-131.88999999999999
30
0
11
419.94500000000005
21
-131.88999999999996
31
0
0
LINE
5
153
100
AcDbEntity
8
0
100
AcDbLine
10
378.47250000000003
20
-299.9699999999998
30
0
11
467.4174999999999
21
-299.97000000000008
31
0
0
LINE
5
154
100
AcDbEntity
8
0
100
AcDbLine
10
473.4174999999999
20
-127.09000000000003
30
0
11
521.38999999999987
21
-127.09000000000003
31
0
0
LINE
5
155
100
AcDbEntity
8
0
100
AcDbLine
10
325
20
-286.76999999999998
30
0
11
325
21
-304.76999999999998
31
0
0
LINE
5
156
100
AcDbEntity
8
0
100
AcDbLine
10
324.49999999999994
20
-130.39000000000004
30
0
11
372.47249999999997
21
-130.39000000000004
31
0
0
LINE
5
157
100
AcDbEntity
8
0
100
AcDbLine
10
324.5
20
-299.97000000000008
30
0
11
372.47249999999997
21
-299.97000000000008
31
0
0
CIRCLE
5
158
100
AcDbEntity
8
0
100
AcDbCircle
10
401.21999999999878
20
-15.499999999999616
30
0
40
1.4999999999999871
210
0
220
0
230
1
0
LINE
5
159
100
AcDbEntity
8
0
100
AcDbLine
10
331
20
-304.76999999999987
30
0
11
419.94500000000011
21
-304.76999999999987
31
0
0
LINE
5
160
100
AcDbEntity
8
0
100
AcDbLine
10
378.47250000000003
20
-130.38999999999996
30
0
11
467.4174999999999
21
-130.39000000000004
31
0
0
LINE
5
161
100
AcDbEntity
8
0
100
AcDbLine
10
487.40156725007893
20
-83.999999999999886
30
1.1102230246251563e-15
11
487.40156725007898
21
-40
31
1.1102230246251575e-15
0
LINE
5
162
100
AcDbEntity
8
0
100
AcDbLine
10
378.47250000000003
20
-120.48999999999999
30
0
11
467.4174999999999
21
-120.48999999999999
31
0
0
LWPOLYLINE
5
163
100
AcDbEntity
8
0
100
AcDbPolyline
90
4
70
1
43
0.0
10
335.99999999999989
20
-59.999997800623731
10
329.99999999999994
20
-60
10
330
20
-30
10
335.99999999999994
20
-30
0
LINE
5
164
100
AcDbEntity
8
0
100
AcDbLine
10
487.40156725007898
20
-40
30
1.1102230246251575e-15
11
509.99000000000012
21
-39.987981407909992
31
-2.4424906541753444e-14
0
LINE
5
165
100
AcDbEntity
8
0
100
AcDbLine
10
520.88999999999987
20
-131.88999999999999
30
0
11
520.88999999999987
21
-113.89000000000001
31
0
0
LINE
5
166
100
AcDbEntity
8
0
100
AcDbLine
10
330.99999999999989
20
-115.39000000000001
30
0
11
419.94500000000005
21
-115.38999999999996
31
0
0
LINE
5
167
100
AcDbEntity
8
0
100
AcDbLine
10
324.49999999999994
20
-117.19000000000005
30
0
11
372.47249999999997
21
-117.19000000000005
31
0
0
CIRCLE
5
168
100
AcDbEntity
8
0
100
AcDbCircle
10
473.20459426627576
20
-100.49999999999984
30
0
40
1.4999999999999853
210
0
220
0
230
1
0
LINE
5
169
100
AcDbEntity
8
0
100
AcDbLine
10
509.89000000000004
20
-83.999999999999886
30
0
11
487.40156725007893
21
-83.999999999999886
31
1.1102230246251563e-15
0
LINE
5
170
100
AcDbEntity
8
0
100
AcDbLine
10
509.89933587030293
20
-79.891095026559071
30
0
11
509.89000000000004
21
-83.999999999999886
31
0
0
LWPOLYLINE
5
171
100
AcDbEntity
8
0
100
AcDbPolyline
90
4
70
1
43
0.0
10
393.04500000000007
20
-413.56
10
393.04500000000007
20
-407.76000000000005
10
422.84500000000008
20
-407.76000000000005
10
422.84500000000008
20
-413.56
0
LWPOLYLINE
5
172
100
AcDbEntity
8
0
100
AcDbPolyline
90
4
70
1
43
0.0
10
335.89999999999998
20
-388.56000000000006
10
335.89999999999981
20
-358.76000216272007
10
330.09999999999991
20
-358.76000003665632
10
330.10000000000002
20
-388.56000000000006
0
LWPOLYLINE
5
173
100
AcDbEntity
8
0
100
AcDbPolyline
90
4
70
1
43
0.0
10
422.84500000000008
20
-10.899999999999926
10
422.84500000000008
20
-5.0999999999999259
10
393.04500000000007
20
-5.0999999999999259
10
393.04500000000007
20
-10.899999999999926
0
LWPOLYLINE
5
174
100
AcDbEntity
8
0
100
AcDbPolyline
90
4
70
1
43
0.0
10
330.09999999999985
20
-79.899997800623737
10
335.89999999999981
20
-79.899997800623737
10
335.89999999999981
20
-70.099997800623726
10
330.09999999999985
20
-70.099997800623726
0
LWPOLYLINE
5
175
100
AcDbEntity
8
0
100
AcDbPolyline
90
4
70
1
43
0.0
10
442.84500000000008
20
-407.76000000000005
10
442.84500000000008
20
-413.56
10
433.04500000000007
20
-413.56
10
433.04500000000007
20
-407.76000000000005
0
LWPOLYLINE
5
176
100
AcDbEntity
8
0
100
AcDbPolyline
90
4
70
1
43
0.0
10
442.84500000000008
20
-10.899999999999926
10
433.04500000000007
20
-10.899999999999926
10
433.04500000000007
20
-5.0999999999999259
10
442.84500000000008
20
-5.0999999999999259
0
LINE
5
177
100
AcDbEntity
8
0
100
AcDbLine
10
509.99000000000001
20
-30.100000000000001
30
0
11
509.97498810522137
21
-39.987989395265373
31
-2.4407936321532532e-14
0
LWPOLYLINE
5
178
100
AcDbEntity
8
0
100
AcDbPolyline
90
4
70
1
43
0.0
10
335.90000000000009
20
-219.43000000000009
10
335.90000000000009
20
-229.23000000000002
10
330.10000000000002
20
-229.23000000000002
10
330.10000000000002
20
-219.43000000000009
0
LWPOLYLINE
5
179
100
AcDbEntity
8
0
100
AcDbPolyline
90
4
70
1
43
0.0
10
509.99000000000012
20
-348.56000219937636
10
515.79000000000019
20
-348.56000219937636
10
515.79000000000019
20
-338.76000219937623
10
509.99000000000012
20
-338.76000219937623
0
LWPOLYLINE
5
180
100
AcDbEntity
8
0
100
AcDbPolyline
90
4
70
1
43
0.0
10
515.79000000000008
20
-358.76000003665632
10
515.78999999999996
20
-388.56000000000006
10
509.99000000000001
20
-388.56000000000006
10
509.99000000000012
20
-358.76000216272007
0
LWPOLYLINE
5
181
100
AcDbEntity
8
0
100
AcDbPolyline
90
4
70
1
43
0.0
10
330.09999999999985
20
-338.76000219937623
10
330.09999999999985
20
-348.56000219937636
10
335.89999999999981
20
-348.56000219937636
10
335.89999999999981
20
-338.76000219937623
0
LWPOLYLINE
5
182
100
AcDbEntity
8
0
100
AcDbPolyline
90
4
70
1
43
0.0
10
515.78999999999996
20
-219.43000000000009
10
515.78999999999996
20
-229.23000000000002
10
509.99000000000001
20
-229.23000000000002
10
509.99000000000001
20
-219.43000000000009
0
LINE
5
183
100
AcDbEntity
8
0
100
AcDbLine
10
515.78999999999996
20
-30.100000000000001
30
0
11
509.99000000000001
21
-30.100000000000001
31
0
0
LINE
5
184
100
AcDbEntity
8
0
100
AcDbLine
10
515.79000000000008
20
-59.899999963343703
30
0
11
515.78999999999996
21
-30.100000000000001
31
0
0
LINE
5
185
100
AcDbEntity
8
0
100
AcDbLine
10
509.94000000000005
20
-70.087999891055318
30
0
11
515.79000000000019
21
-70.099997800623726
31
0
0
LINE
5
186
100
AcDbEntity
8
0
100
AcDbLine
10
515.79000000000019
20
-79.899997800623737
30
0
11
509.89933587030293
21
-79.891095026559071
31
0
0
LWPOLYLINE
5
187
100
AcDbEntity
8
0
100
AcDbPolyline
90
4
70
1
43
0.0
10
335.90000000000009
20
-179.43000000000009
10
330.10000000000002
20
-179.43000000000009
10
330.10000000000002
20
-209.23000000000002
10
335.90000000000009
20
-209.23000000000002
0
LINE
5
188
100
AcDbEntity
8
0
100
AcDbLine
10
509.94475783850089
20
-59.899969938390434
30
0
11
515.79000000000008
21
-59.899999963343703
31
0
0
LINE
5
189
100
AcDbEntity
8
0
100
AcDbLine
10
515.79000000000019
20
-70.099997800623726
30
0
11
515.79000000000019
21
-79.899997800623737
31
0
0
LWPOLYLINE
5
190
100
AcDbEntity
8
0
100
AcDbPolyline
90
4
70
1
43
0.0
10
515.79000000000008
20
-209.23000000000002
10
515.79000000000008
20
-179.43000000000009
10
509.99000000000001
20
-179.43000000000009
10
509.99000000000001
20
-209.23000000000002
0
LINE
5
191
100
AcDbEntity
8
0
100
AcDbLine
10
378.47250000000003
20
-127.08999999999996
30
0
11
467.4174999999999
21
-127.09000000000003
31
0
0
LINE
5
192
100
AcDbEntity
8
0
100
AcDbLine
10
487.40156725007893
20
-83.999999999999886
30
1.1102230246251563e-15
11
487.40156725007898
21
-40
31
1.1102230246251575e-15
0
CIRCLE
5
193
100
AcDbEntity
8
0
100
AcDbCircle
10
346.21999999999895
20
-15.500000000000007
30
0
40
1.4999999999999853
210
0
220
0
230
1
0
LINE
5
194
100
AcDbEntity
8
0
100
AcDbLine
10
324.49999999999994
20
-123.79000000000002
30
0
11
372.47249999999997
21
-123.79000000000002
31
0
0
LINE
5
195
100
AcDbEntity
8
0
100
AcDbLine
10
331
20
-301.46999999999991
30
0
11
419.94500000000011
21
-301.46999999999991
31
0
0
LINE
5
196
100
AcDbEntity
8
0
100
AcDbLine
10
520.88999999999999
20
-304.76999999999998
30
0
11
520.88999999999999
21
-286.76999999999998
31
0
0
LINE
5
197
100
AcDbEntity
8
0
100
AcDbLine
10
425.94499999999994
20
-118.68999999999987
30
0
11
514.8900000000001
21
-118.69
31
0
0
CIRCLE
5
198
100
AcDbEntity
8
0
100
AcDbCircle
10
438.20459426627593
20
-100.4999999999998
30
0
40
1.4999999999999853
210
0
220
0
230
1
0
LINE
5
199
100
AcDbEntity
8
0
100
AcDbLine
10
473.4174999999999
20
-117.19000000000005
30
0
11
521.38999999999987
21
-117.19000000000005
31
0
0
LINE
5
200
100
AcDbEntity
8
0
100
AcDbLine
10
425.94499999999994
20
-301.46999999999991
30
0
11
514.8900000000001
21
-301.46999999999991
31
0
0
LINE
5
201
100
AcDbEntity
8
0
100
AcDbLine
10
425.94499999999994
20
-131.88999999999987
30
0
11
514.8900000000001
21
-131.88999999999999
31
0
0
LINE
5
202
100
AcDbEntity
8
0
100
AcDbLine
10
473.4174999999999
20
-113.89000000000001
30
0
11
521.38999999999987
21
-113.89000000000004
31
0
0
LINE
5
203
100
AcDbEntity
8
0
100
AcDbLine
10
324.5
20
-290.06999999999999
30
0
11
372.47249999999997
21
-290.06999999999999
31
0
0
LINE
5
204
100
AcDbEntity
8
0
100
AcDbLine
10
509.94475783850089
20
-59.899969938390434
30
0
11
509.94000000000005
21
-70.087999891055318
31
0
0
ENDSEC
0
SECTION
2
OBJECTS
0
DICTIONARY
5
C
100
AcDbDictionary
3
ACAD_GROUP
350
D
3
ACAD_MLINESTYLE
350
17
0
DICTIONARY
5
D
100
AcDbDictionary
0
DICTIONARY
5
1A
330
C
100
AcDbDictionary
0
DICTIONARY
5
17
100
AcDbDictionary
0
ENDSEC
0
EOF
